<svg id="visual" viewBox="0 0 2578 3508" width="2578" height="3508" xmlns="http://www.w3.org/2000/svg" xmlns:xlink="http://www.w3.org/1999/xlink" version="1.1"><rect x="0" y="0" width="2578" height="3508" fill="#4a4072"></rect><defs><linearGradient id="grad1_0" x1="0%" y1="100%" x2="100%" y2="0%"><stop offset="30%" stop-color="#caefcd" stop-opacity="1"></stop><stop offset="70%" stop-color="#caefcd" stop-opacity="1"></stop></linearGradient></defs><defs><linearGradient id="grad1_1" x1="0%" y1="100%" x2="100%" y2="0%"><stop offset="30%" stop-color="#caefcd" stop-opacity="1"></stop><stop offset="70%" stop-color="#9fd9c3" stop-opacity="1"></stop></linearGradient></defs><defs><linearGradient id="grad1_2" x1="0%" y1="100%" x2="100%" y2="0%"><stop offset="30%" stop-color="#77c2bc" stop-opacity="1"></stop><stop offset="70%" stop-color="#9fd9c3" stop-opacity="1"></stop></linearGradient></defs><defs><linearGradient id="grad1_3" x1="0%" y1="100%" x2="100%" y2="0%"><stop offset="30%" stop-color="#77c2bc" stop-opacity="1"></stop><stop offset="70%" stop-color="#54aab6" stop-opacity="1"></stop></linearGradient></defs><defs><linearGradient id="grad1_4" x1="0%" y1="100%" x2="100%" y2="0%"><stop offset="30%" stop-color="#3d91ae" stop-opacity="1"></stop><stop offset="70%" stop-color="#54aab6" stop-opacity="1"></stop></linearGradient></defs><defs><linearGradient id="grad1_5" x1="0%" y1="100%" x2="100%" y2="0%"><stop offset="30%" stop-color="#3d91ae" stop-opacity="1"></stop><stop offset="70%" stop-color="#3877a1" stop-opacity="1"></stop></linearGradient></defs><defs><linearGradient id="grad1_6" x1="0%" y1="100%" x2="100%" y2="0%"><stop offset="30%" stop-color="#415c8d" stop-opacity="1"></stop><stop offset="70%" stop-color="#3877a1" stop-opacity="1"></stop></linearGradient></defs><defs><linearGradient id="grad1_7" x1="0%" y1="100%" x2="100%" y2="0%"><stop offset="30%" stop-color="#415c8d" stop-opacity="1"></stop><stop offset="70%" stop-color="#4a4072" stop-opacity="1"></stop></linearGradient></defs><defs><linearGradient id="grad2_0" x1="0%" y1="100%" x2="100%" y2="0%"><stop offset="30%" stop-color="#caefcd" stop-opacity="1"></stop><stop offset="70%" stop-color="#caefcd" stop-opacity="1"></stop></linearGradient></defs><defs><linearGradient id="grad2_1" x1="0%" y1="100%" x2="100%" y2="0%"><stop offset="30%" stop-color="#9fd9c3" stop-opacity="1"></stop><stop offset="70%" stop-color="#caefcd" stop-opacity="1"></stop></linearGradient></defs><defs><linearGradient id="grad2_2" x1="0%" y1="100%" x2="100%" y2="0%"><stop offset="30%" stop-color="#9fd9c3" stop-opacity="1"></stop><stop offset="70%" stop-color="#77c2bc" stop-opacity="1"></stop></linearGradient></defs><defs><linearGradient id="grad2_3" x1="0%" y1="100%" x2="100%" y2="0%"><stop offset="30%" stop-color="#54aab6" stop-opacity="1"></stop><stop offset="70%" stop-color="#77c2bc" stop-opacity="1"></stop></linearGradient></defs><defs><linearGradient id="grad2_4" x1="0%" y1="100%" x2="100%" y2="0%"><stop offset="30%" stop-color="#54aab6" stop-opacity="1"></stop><stop offset="70%" stop-color="#3d91ae" stop-opacity="1"></stop></linearGradient></defs><defs><linearGradient id="grad2_5" x1="0%" y1="100%" x2="100%" y2="0%"><stop offset="30%" stop-color="#3877a1" stop-opacity="1"></stop><stop offset="70%" stop-color="#3d91ae" stop-opacity="1"></stop></linearGradient></defs><defs><linearGradient id="grad2_6" x1="0%" y1="100%" x2="100%" y2="0%"><stop offset="30%" stop-color="#3877a1" stop-opacity="1"></stop><stop offset="70%" stop-color="#415c8d" stop-opacity="1"></stop></linearGradient></defs><defs><linearGradient id="grad2_7" x1="0%" y1="100%" x2="100%" y2="0%"><stop offset="30%" stop-color="#4a4072" stop-opacity="1"></stop><stop offset="70%" stop-color="#415c8d" stop-opacity="1"></stop></linearGradient></defs><g transform="translate(2578, 3508)"><path d="M-1523.7 0C-1504.4 -201.1 -1485.2 -402.1 -1407.7 -583.1C-1330.2 -764.1 -1194.6 -924.9 -1040.9 -1040.9C-887.1 -1156.8 -715.3 -1227.8 -538.8 -1300.8C-362.3 -1373.8 -181.2 -1448.8 0 -1523.7L0 0Z" fill="#464e80"></path><path d="M-1333.2 0C-1316.4 -175.9 -1299.5 -351.9 -1231.7 -510.2C-1164 -668.5 -1045.3 -809.3 -910.8 -910.8C-776.2 -1012.2 -625.9 -1074.4 -471.5 -1138.2C-317 -1202.1 -158.5 -1267.7 0 -1333.2L0 0Z" fill="#3c6998"></path><path d="M-1142.8 0C-1128.3 -150.8 -1113.9 -301.6 -1055.8 -437.3C-997.7 -573 -895.9 -693.7 -780.6 -780.6C-665.3 -867.6 -536.5 -920.9 -404.1 -975.6C-271.7 -1030.4 -135.9 -1086.6 0 -1142.8L0 0Z" fill="#3884a8"></path><path d="M-952.3 0C-940.3 -125.7 -928.2 -251.3 -879.8 -364.4C-831.4 -477.5 -746.6 -578.1 -650.5 -650.5C-554.5 -723 -447.1 -767.4 -336.8 -813C-226.5 -858.6 -113.2 -905.5 0 -952.3L0 0Z" fill="#479eb3"></path><path d="M-761.8 0C-752.2 -100.5 -742.6 -201.1 -703.9 -291.5C-665.1 -382 -597.3 -462.5 -520.4 -520.4C-443.6 -578.4 -357.7 -613.9 -269.4 -650.4C-181.2 -686.9 -90.6 -724.4 0 -761.8L0 0Z" fill="#65b6ba"></path><path d="M-571.4 0C-564.2 -75.4 -556.9 -150.8 -527.9 -218.7C-498.8 -286.5 -448 -346.8 -390.3 -390.3C-332.7 -433.8 -268.2 -460.4 -202.1 -487.8C-135.9 -515.2 -67.9 -543.3 0 -571.4L0 0Z" fill="#8bcec0"></path><path d="M-380.9 0C-376.1 -50.3 -371.3 -100.5 -351.9 -145.8C-332.6 -191 -298.6 -231.2 -260.2 -260.2C-221.8 -289.2 -178.8 -307 -134.7 -325.2C-90.6 -343.5 -45.3 -362.2 0 -380.9L0 0Z" fill="#b4e4c7"></path><path d="M-190.5 0C-188.1 -25.1 -185.6 -50.3 -176 -72.9C-166.3 -95.5 -149.3 -115.6 -130.1 -130.1C-110.9 -144.6 -89.4 -153.5 -67.4 -162.6C-45.3 -171.7 -22.6 -181.1 0 -190.5L0 0Z" fill="#caefcd"></path></g><g transform="translate(0, 0)"><path d="M1523.7 0C1490.2 207.8 1456.6 415.6 1347.9 558.3C1239.3 701.1 1055.4 778.9 927.7 927.7C800 1076.6 728.4 1296.5 583.1 1407.7C437.8 1518.9 218.9 1521.3 0 1523.7L0 0Z" fill="#464e80"></path><path d="M1333.2 0C1303.9 181.8 1274.5 363.6 1179.4 488.5C1084.4 613.5 923.5 681.5 811.8 811.8C700 942 637.3 1134.5 510.2 1231.7C383.1 1329 191.5 1331.1 0 1333.2L0 0Z" fill="#3c6998"></path><path d="M1142.8 0C1117.6 155.8 1092.5 311.7 1011 418.8C929.4 525.8 791.6 584.2 695.8 695.8C600 807.4 546.3 972.4 437.3 1055.8C328.4 1139.2 164.2 1141 0 1142.8L0 0Z" fill="#3884a8"></path><path d="M952.3 0C931.3 129.9 910.4 259.7 842.5 349C774.5 438.2 659.7 486.8 579.8 579.8C500 672.9 455.2 810.3 364.4 879.8C273.6 949.3 136.8 950.8 0 952.3L0 0Z" fill="#479eb3"></path><path d="M761.8 0C745.1 103.9 728.3 207.8 674 279.2C619.6 350.6 527.7 389.4 463.9 463.9C400 538.3 364.2 648.3 291.5 703.9C218.9 759.4 109.5 760.6 0 761.8L0 0Z" fill="#65b6ba"></path><path d="M571.4 0C558.8 77.9 546.2 155.8 505.5 209.4C464.7 262.9 395.8 292.1 347.9 347.9C300 403.7 273.1 486.2 218.7 527.9C164.2 569.6 82.1 570.5 0 571.4L0 0Z" fill="#8bcec0"></path><path d="M380.9 0C372.5 51.9 364.2 103.9 337 139.6C309.8 175.3 263.9 194.7 231.9 231.9C200 269.1 182.1 324.1 145.8 351.9C109.5 379.7 54.7 380.3 0 380.9L0 0Z" fill="#b4e4c7"></path><path d="M190.5 0C186.3 26 182.1 51.9 168.5 69.8C154.9 87.6 131.9 97.4 116 116C100 134.6 91 162.1 72.9 176C54.7 189.9 27.4 190.2 0 190.5L0 0Z" fill="#caefcd"></path></g></svg>