<?xml version="1.0" standalone="no"?>
<!DOCTYPE svg PUBLIC "-//W3C//DTD SVG 1.1//EN" "http://www.w3.org/Graphics/SVG/1.1/DTD/svg11.dtd">
<svg xmlns="http://www.w3.org/2000/svg" viewBox="0 0 1017.11 345.49" width="1017.1099853515625" height="345.489990234375"><defs><style>.cls-1{font-size:135.19px;font-family:BellBottom, "BellBottom.Laser";}.cls-1,.cls-2{fill:#fff;}</style></defs><g id="Layer_2" data-name="Layer 2"><g id="Layer_1-2" data-name="Layer 1"><text class="cls-1" transform="translate(138.82 162.73) rotate(-144.44) scale(0.57 1)">.</text><path class="cls-2" d="M53.79,76.71c2.55,13.69,4.76,21.56,6.63,23.54,1.27,1,2.6,2.11,4,3.29a5.21,5.21,0,0,1,2.07,4q0,8.55-2.95,12.32c-2,2.52-5.74,4.56-11.34,6.26a59.4,59.4,0,0,1-11.35,3.74c-4.71,1.14-10.06,2.13-16,3-6.68,1.19-11.17,1.18-13.48-.21s-3.46-4.44-3.46-9.22q0-2,2.65-5.28a44.19,44.19,0,0,0,4-5.14Q18.72,103.93,23,67.2v-9c.1-5.46-1.13-8.76-3.68-9.86-.89-.18-2.11-.47-3.69-.86-1.17-.71-1.76-2-1.76-4,0-3.69,2.55-7.3,7.66-10.73a52,52,0,0,1,15.61-6.89l2.06-.58c.79-.3,1.92-.66,3.39-1.07.59-.24,3-1.12,7.37-2.58,2.94-.94,5.94-1.74,9-2.41,22.69-4.72,34,2.72,34,20.31,0,9.95-2.65,17.32-8,22.18-3.34,3.13-8.89,5.81-16.65,8.23S55.75,74.7,53.79,76.71ZM52.9,35.3c-2.45.62-3.68,2.5-3.68,5.61q0,9.74.3,12.68c.09,1.08.17,2.15.22,3.24a2,2,0,0,0,1.84,2,7.3,7.3,0,0,0,1.62-.12,12,12,0,0,0,7.66-5.95,17.6,17.6,0,0,0,2.5-9C63.36,36.43,59.88,33.54,52.9,35.3Z"/><path class="cls-2" d="M188,42.41q0,4.89.22,14.6t.22,14.6c0,9.32-4.18,18.25-12.52,26.89s-17.34,13.19-27,13.83c-17.38,1.16-29.61-.59-36.68-6-7.37-5.53-11-16.18-11-32.2,0-3.08.17-7.71.52-13.92s.51-10.84.51-13.91q0-10.2-2.36-14.56a11.7,11.7,0,0,0-4.56-4,4.65,4.65,0,0,1-2.51-4.42c0-4,2.8-7.45,8.4-10.3a44.87,44.87,0,0,1,13.7-4.21c16.11-2.45,24.16.06,24.16,6.64A7.46,7.46,0,0,1,136.57,21a19.64,19.64,0,0,0-4.12,4.87q-2.5,6-2.5,19.22l-.15-.27c.1,8.65,1,14.37,2.65,17.21,2.55,4.06,8,5.65,16.35,5,7.07-.58,11.86-2.3,14.36-5.32s3.76-8,3.76-15.09A126.43,126.43,0,0,0,166,29.68q-1-7.37-5.16-9.46a5.73,5.73,0,0,1-3.68-5.54C157.2,7.41,165,2.92,180.47,2a26.12,26.12,0,0,1,10.61,1.3c4,1.54,6,4.07,6,7.54a7.08,7.08,0,0,1-2.51,5.43,16.57,16.57,0,0,0-4,4.48Q188,27.15,188,42.41Z"/><path class="cls-2" d="M203.3,10.29C203.6,3.77,213.32,0,232.47,0q3.24,0,7.88.18c3.09.13,5,.21,5.67.22,7.86.12,14.49,1.78,19.89,4.93,6.87,4,10.31,9.66,10.31,16.87a17.64,17.64,0,0,1-2.87,10.15c-1.92,2.81-3.9,5.6-6,8.35A35.13,35.13,0,0,1,282.7,52.55a41,41,0,0,1,8.55,25.92c0,24.57-16.31,34.85-48.91,33.13-13.26-.63-21.9-1-25.93-1.61-12.77-1.79-19.44-5.2-20-10.69a25.37,25.37,0,0,1-.15-2.6q0-4.77,4.27-8.56a18.79,18.79,0,0,0,6.19-10.87q2.2-10.15,4.57-20.17a115.69,115.69,0,0,0,2.65-20.62q0-10.6-3.39-16.21l-.59-.28q-2.06-1.71-5.15-4.24Q203.15,14.06,203.3,10.29Zm36.09,10.14a49.85,49.85,0,0,0,.74,8.42q1,6.06,3,6.11c5.1.12,7.66-3.49,7.66-10.89a10.63,10.63,0,0,0-2.14-6.35,6.57,6.57,0,0,0-5.38-3Q239.4,14.67,239.39,20.43ZM246.61,50c-2.75-.09-4.17.9-4.27,2.95-.2,3.66-.39,7.32-.59,11-.49,6.63,1.23,10,5.16,10.16,6.08.25,9.13-3.46,9.13-11.23C256,54.54,252.9,50.22,246.61,50Z"/><path class="cls-2" d="M356.5,122.54l-7.51-.73a123.3,123.3,0,0,1-17.68-1.7c-12.37-1.83-18.31-2.6-17.82-2.55-12.37-1.38-18.56-6.61-18.56-16,0-2.09,1.32-5.74,4-11q4.41-8.55,5.15-12.52A214.52,214.52,0,0,0,307,42.89q-.15-17.24-4.42-21.14c-.89-.57-2.11-1.4-3.68-2.51a7.32,7.32,0,0,1-1.77-5.19q0-6.12,7.66-8.6c4.22-1.4,9.42-1.83,15.61-1.24,8.74.8,14.88,2.42,18.42,4.77a8.83,8.83,0,0,1,4.56,7.85c0,2-.46,3.44-1.4,4.26s-1.89,1.58-2.87,2.29a6.38,6.38,0,0,0-2.21,3.11q-2.66,6.24-2.65,18,0,16.45.29,18.31,3.24,21,9.73,21.84a13.29,13.29,0,0,0,8.25-1.72,56.78,56.78,0,0,1,8-3.86,15.82,15.82,0,0,1,5.89-.91A7.41,7.41,0,0,1,370.2,80a20.89,20.89,0,0,1,4.13,4.22c.78,1.73,1.18,5.19,1.18,10.38q0,19.38-5.6,26c-2,2.25-4.71,3.12-8.25,2.61l-2.8-.4A9.34,9.34,0,0,0,356.5,122.54Z"/><path class="cls-2" d="M392.74,49.78c-.1-10.37-1.42-16.81-4-19.28q-1.32-.93-3.68-2.76a8,8,0,0,1-1.77-5.43q0-6.3,7.66-8.45,6.33-1.84,15.62-.52Q419.7,15.16,425,19a9.54,9.54,0,0,1,4.57,8.24c0,2.08-.47,3.52-1.4,4.32s-1.9,1.55-2.88,2.25a6.2,6.2,0,0,0-2.21,3.11q-2.64,6.46-2.65,20.43v.78q1.33,13.54,4.13,28.73,2.94,17.1,5.15,20.58,1.92,2.49,4.05,5.34a9.06,9.06,0,0,1,2.14,5.34q0,12.8-6.19,14.7c-3.14,1-11.54.35-25.19-1.89-11-1.79-18.31-4.08-21.95-6.93s-5.45-7.54-5.45-14.08c0-1.53.94-3.07,2.8-4.64q3.39-2.88,3.83-3.89,2.07-4,5-21.55Q391.42,64.07,392.74,49.78Z"/><path class="cls-2" d="M523.55,116.5c0,11.11-3.34,19.09-10,23.86-6.19,4.55-14.44,5.86-24.75,4-13.45-2.43-24.84-10.22-34.17-23.22A68.22,68.22,0,0,1,441.35,80.6a65.18,65.18,0,0,1,13.11-40.13C464.08,27.55,475.77,22,489.52,24A29.62,29.62,0,0,1,503,29.8c4.37,3.23,7,4.93,8,5.07a3.33,3.33,0,0,0,2.28-.95,2.78,2.78,0,0,1,2.43-.76q6,1.19,7.51,11.18.59,3.13.59,13.55a9.66,9.66,0,0,1-3.83,8,10.31,10.31,0,0,1-8.25,2.32c-2.85-.44-5.4-3.24-7.66-8.36s-4.86-7.91-7.81-8.36A14.73,14.73,0,0,0,482,56.74a20.78,20.78,0,0,0-5,13.93q0,21.94,15.46,24.51c2.56.42,6.61-.73,12.16-3.49s9.2-4,11-3.72a4,4,0,0,1,2.65,1.71Q523.55,97.42,523.55,116.5Z"/><path class="cls-2" d="M542.7,72.32q-.15-16.3-4-20.25c-.89-.66-2.12-1.65-3.68-3a8.82,8.82,0,0,1-1.77-5.72c0-4.4,2.55-7.29,7.66-8.72q6.33-1.84,15.61-.41,13.11,1.95,18.42,5.89a10,10,0,0,1,4.56,8.59c0,2.18-.46,3.69-1.4,4.54s-1.89,1.64-2.87,2.38A6.55,6.55,0,0,0,573,58.94q-2.65,6.8-2.65,21.41v.81q1.32,14.18,4.12,30.06,3,17.86,5.16,21.49c1.27,1.73,2.63,3.57,4.05,5.54a9.65,9.65,0,0,1,2.14,5.56q0,13.4-6.19,15.47c-3.15,1.1-11.54.51-25.19-1.88-11-1.92-18.32-4.44-22-7.49s-5.45-8-5.45-14.85c0-1.6.93-3.21,2.8-4.81,2.26-2,3.53-3.3,3.83-4q2.06-4.16,5-22.5Q541.38,87.28,542.7,72.32Z"/><path class="cls-2" d="M603.38,81.23q0-16.58-4-20.7-1.33-1-3.69-2.94A9,9,0,0,1,594,51.8c0-4.48,2.55-7.47,7.66-9q6.33-2,15.61-.77,1.92.22,8.1,1.41c19.15,3.57,33.54,10.16,43.16,20.17Q685.73,81.69,685.73,117c0,17.82-3.93,31.7-11.79,41.42q-12.66,15.65-35.5,12.46c-20.13-2.88-26.51-3.9-19.15-2.64-9.72-1.59-16.64-3.52-20.77-5.71a40.84,40.84,0,0,1-6.92-4.06,6.24,6.24,0,0,1-2.21-5.91q.74-7.58,3.83-10.84a22.84,22.84,0,0,0,5.45-8.17Q603.53,118.71,603.38,81.23ZM638,61.86a12.42,12.42,0,0,0-1.91,1.45,6.83,6.83,0,0,0-2.43,3.37,35.91,35.91,0,0,0-1.4,5.14q0,29.63.29,36.46.3,13.77,6.92,14.63,7.66,1,11.35-8.43,2.79-6.83,2.8-17a70.94,70.94,0,0,0-2.8-21.29C648.17,67.6,643.89,62.84,638,61.86Z"/><path class="cls-2" d="M801.66,165.7c-.39,6.72-4.52,11.54-12.37,14.25-5.11,1.92-11.35,2.79-18.71,2.57s-12.67-1.23-15.91-2.86c-5.4-2.66-8.1-7.49-8.1-14.45a43.39,43.39,0,0,1,1-8.85c4.42-4.92,6.63-12.73,6.63-23.36,0-3.66-2.16-6.53-6.48-8.64a26.73,26.73,0,0,0-10.61-2.68l-4.13.64q-5.44,3.45-5.45,14a30.56,30.56,0,0,0,2.8,13.42,77.06,77.06,0,0,0,5.45,7.64c1.87,2.5,2.8,4.76,2.8,6.81,0,7.82-3.53,12.68-10.6,14.42-3.44.87-9.68,1-18.71.15C695.74,177.46,689,172.8,689,165.08c-.1-6.85,2.5-12.13,7.81-15.91q9.27-6.72,16.35-31.3c4-14.29,6-26.93,6-37.79a26.18,26.18,0,0,0-1.92-10.62,19.41,19.41,0,0,0-3.39-5.1c-1.27-1.43-1.91-2.48-1.91-3.16,0-3.73,5.25-6.63,15.76-8.94,8.94-1.94,15.47-2.72,19.59-2.18,7,.92,12.28,3.41,15.91,7.56q2.5,2.93,7.37,13.45,1.47,3.45,3.68,13.46,8.54,39.87,17.24,60.19a17,17,0,0,0,4.42,6,22.33,22.33,0,0,1,4.27,4.91Q802,159.25,801.66,165.7ZM749.51,98.92q0-1.38-2.65-9.15c-1.67-4.73-3.88-7.13-6.63-7.23q-2.51-.08-5.3,7.14-2.35,6.21-2.36,9.61c0,1,1.28,1.6,3.83,1.71a26.55,26.55,0,0,0,3-.13,27,27,0,0,1,2.94-.14c2,.07,3.19.28,3.69.64C748.33,101.22,749.51,100.4,749.51,98.92Z"/><path class="cls-2" d="M818.3,93.44q0-17.62-4-21.25-1.33-.81-3.69-2.43a8.63,8.63,0,0,1-1.76-5.84c0-4.76,2.55-8.41,7.66-11.05,4.22-2.23,9.42-3.51,15.61-3.9,1.28-.11,4-.15,8.1-.18,19.15-.26,33.54,3.28,43.16,11.54,11.49,10,17.24,27.32,17.24,52.34,0,18.93-3.93,34.72-11.78,47-8.45,13.23-20.29,20.6-35.51,21.73-20.13,1.4-26.51,1.48-19.15,1.33-9.72.34-16.64-.38-20.77-1.92-3.73-1.31-6-2.33-6.92-3-1.77-1.25-2.5-3.21-2.21-5.88.49-5.46,1.77-9.53,3.83-12.24a31,31,0,0,0,5.45-9.72Q818.45,133.28,818.3,93.44Zm34.62-27.78a17.28,17.28,0,0,0-1.91,2,9.72,9.72,0,0,0-2.43,4.12,46.58,46.58,0,0,0-1.4,5.77q0,31.5.29,38.69c.2,9.72,2.5,14.41,6.93,14q7.65-.69,11.34-11.55a56.37,56.37,0,0,0,2.8-18.72q0-13.28-2.8-22C863.09,69.46,858.81,65.39,852.92,65.66Z"/><path class="cls-2" d="M916.12,71.34q-.89-9.15-3.54-11.12c-.88-.42-2.11-1.07-3.68-2-1.18-1.2-1.77-3.12-1.77-5.74,0-4.89,2.55-9,7.66-12.43a43.43,43.43,0,0,1,15.61-6.31c1.18-.28,3-.58,5.38-.92s4.25-.69,5.53-1c3.33-.85,8.78-2.55,16.35-5.29s12.91-4.72,16.05-5.7c4.23-1.33,7.52.87,9.87,6.67a43,43,0,0,1,2.65,15.74,26.9,26.9,0,0,1-1.76,10.08c-1.57,3.68-3.74,6-6.48,6.81s-4.92,0-6.78-2.48q-4.12-5.51-6.34-6.69c-3.63-2.09-9-2.14-16-.29l-3.24.84c-1,.73-1.67,2.35-2.07,4.86a12.48,12.48,0,0,0-.29,2.6c0,4,1.62,6.83,4.86,8.54,2.85,1.44,6.24,1.64,10.17.57.78-.21,1.74-1.14,2.87-2.79s2.08-2.58,2.87-2.81q2.21-.63,2.21,3.37a59.31,59.31,0,0,1-1.33,12.55q-1.9,8.73-5.59,9.72c-1.58.42-3.07-.69-4.5-3.34s-3.51-3.61-6.26-2.91c-3.14.79-4.71,4.36-4.71,10.74,0,15,7.12,21,21.36,17.15a14.43,14.43,0,0,0,2.8-1.32,6,6,0,0,1,2.94-1,10.28,10.28,0,0,0,1.77-.32c2.46-.71,4.5-2.78,6.12-6.18s2.92-5.27,3.9-5.58q2.2-.69,3.83,2.45a13.57,13.57,0,0,1,1.62,6.25q0,1.83.37,9.3t.37,12.41c0,14.88-2.46,25.29-7.37,31.1-1.87,2.12-8.1,4.77-18.71,7.49-2.94.75-7,1.76-12.08,2.95q-6.33,1.67-12.37,2.75-13.85,2.84-27.69,5c-5,.69-7.52-1.86-7.52-7.57a10.71,10.71,0,0,1,2.21-6.41,46.55,46.55,0,0,0,4.13-6.21q1.39-2.91,2.8-5.84,2.06-4.47,2.5-20.85Q915.38,105,916,81.75C916.16,77.78,916.21,74.3,916.12,71.34Z"/><path class="cls-2" d="M0,248.53c0-3.41,2.69-7.35,8.07-11.75a103.18,103.18,0,0,1,19.76-12.53c8.16-4,13.54-6.22,16.14-6.8q11.82-2.67,20.73,3.17c5.93,3.88,8.9,9.65,8.9,17.15q0,16.54-9.6,24.89c-3.52,3.16-9.41,6.07-17.67,8.91-6.31,2.12-9.46,4.32-9.46,6.48,0,4.34,1.25,9.76,3.76,16.31s3.75,10.64,3.75,12.21c0,5.25-6.63,9-19.89,11.72a61.89,61.89,0,0,1-14,1.45C3.94,319.63.7,318,.7,314.66a7.18,7.18,0,0,1,1.46-3.51,13.16,13.16,0,0,0,1.74-3.32Q5,302.68,6.54,287.28q1.38-14,1.67-22.53a23.84,23.84,0,0,0-1.11-9.21L5.29,253c-1.21-.27-2.39-.58-3.55-.94S0,250.49,0,248.53Zm32.14,1.69a8.11,8.11,0,0,0,1.11,4.29,3.51,3.51,0,0,0,3.9,1.74c2.69-.59,4.82-2.38,6.4-5.41a17.11,17.11,0,0,0,2.09-8,9.66,9.66,0,0,0-2-6q-2.5-3.65-7.1-2.21Q32.13,235.67,32.14,250.22Z"/><path class="cls-2" d="M76.94,253q0-14.44,9.46-29.13c7-10.78,15.45-16.94,25.19-18.22q14.88-1.95,24.34,11.06c5.57,7.72,8.35,16.81,8.35,27.1q0,13.92-9.46,26.16c-6.68,8.84-14.66,13.59-23.93,14.49-10.85,1.05-19.29-1.35-25.32-7.36C79.82,271.47,76.94,263.5,76.94,253Zm41.6-9.89a52.4,52.4,0,0,0-1.81-13.56q-2.51-9.71-7.09-9.12-3.21.42-4.87,4.4a16.08,16.08,0,0,0-1.39,6.62,29.56,29.56,0,0,0,2.08,11.27q2.79,6.78,8.07,6.19a5.28,5.28,0,0,0,3.55-1.93A5.77,5.77,0,0,0,118.54,243.09Z"/><path class="cls-2" d="M152.77,220.74A18.29,18.29,0,0,1,159.72,206a25.6,25.6,0,0,1,15.73-6q11.82-.66,19.34,7.2c4.08,4.06,6.12,7.66,6.12,10.73,0,3.64-2.64,5.5-7.93,5.64q-3.9.1-7.24-5.33t-5.84-5.31a5.07,5.07,0,0,0-3.13,1.33,3.71,3.71,0,0,0-1.46,2.9c0,2.5,2.5,5.09,7.51,7.86,7,3.81,11.64,7.07,14.06,9.62,5.09,5.4,7.65,12.41,7.65,20.9q0,10.52-8.63,17.78a28.61,28.61,0,0,1-18.5,7c-18.93.38-28.39-7.66-28.39-25q0-6.17,4.45-6.44a9.1,9.1,0,0,1,3.41.7,9.62,9.62,0,0,0,3.41.71c3.53-.18,5.29-2,5.29-5.5,0-2.38-2.14-5.9-6.4-10.45S152.77,225.31,152.77,220.74Z"/><path class="cls-2" d="M294.83,232.45q3.62,22.92,6.26,26.94,1.8,2.17,3.75,4.67a7.94,7.94,0,0,1,2,4.84q0,9.06-2.78,12.17c-1.86,2.08-5.43,3.12-10.71,3.17a40.73,40.73,0,0,1-10.72.32,130,130,0,0,1-15.16-2.2c-6.31-1.07-10.56-2.73-12.74-5s-3.27-6-3.26-11q0-2.15,2.5-4.61a26.45,26.45,0,0,0,3.76-4c2.69-5.42,5.38-20.53,8.07-45.45v-9.48q.13-8.62-3.48-11.72-1.26-.75-3.48-2.22a6.83,6.83,0,0,1-1.67-4.9q0-5.87,7.23-8.63a36.17,36.17,0,0,1,14.75-2l1.95,0a31.45,31.45,0,0,1,3.2,0c.56-.06,2.88-.2,7-.39a83.65,83.65,0,0,1,8.49.2c21.42,1.76,32.14,12.33,32.14,31q0,15.81-7.52,21.4c-3.15,2.41-8.39,3.74-15.72,4S296.68,230.92,294.83,232.45ZM294,188.36c-2.32-.1-3.48,1.5-3.48,4.78q0,10.32.28,13.52c.09,1.16.16,2.33.21,3.49a3.13,3.13,0,0,0,1.74,2.71,6.45,6.45,0,0,0,1.53.37,7.61,7.61,0,0,0,7.23-4,16.23,16.23,0,0,0,2.37-8.77C303.87,192.71,300.58,188.64,294,188.36Z"/><path class="cls-2" d="M439.39,286.67q-.56,8.86-11.69,10.93-7.24,1.56-17.67.08t-15-4.05c-5.1-2.81-7.65-7.26-7.65-13.4a34.85,34.85,0,0,1,1-7.72q6.27-6,6.26-20.09,0-4.84-6.12-8.12a27,27,0,0,0-10-3.07l-3.9.33c-3.43,1.82-5.15,5.83-5.15,12A26.17,26.17,0,0,0,372,265.51a75.07,75.07,0,0,0,5.15,7.05c1.76,2.31,2.65,4.37,2.65,6.17q0,10.36-10,12.08c-3.25.59-9.14.35-17.67-.65-12.8-1.5-19.2-5.55-19.2-12.35a15.28,15.28,0,0,1,7.37-13.89c5.85-3.85,11-12.86,15.45-27.13q5.7-18.67,5.7-33a22.12,22.12,0,0,0-1.81-9.41,17.84,17.84,0,0,0-3.2-4.58c-1.2-1.29-1.81-2.23-1.81-2.83,0-3.27,5-5.73,14.89-7.33q12.66-2,18.51-.84,9.87,1.92,15,7.89c1.58,1.88,3.9,6,7,12.57a82.7,82.7,0,0,1,3.48,12.26q8.07,36.14,16.28,55.25A18.76,18.76,0,0,0,434,272.6a24.52,24.52,0,0,1,4,4.94A19.11,19.11,0,0,1,439.39,286.67ZM390.13,222c0-.81-.83-3.57-2.5-8.26q-2.37-6.43-6.26-6.8c-1.58-.15-3.25,1.85-5,6q-2.24,5.34-2.23,8.34c0,.9,1.21,1.47,3.62,1.72.56.05,1.48.07,2.78.05s2.23,0,2.79.06a8.5,8.5,0,0,1,3.47.82C389,223.93,390.13,223.3,390.13,222Z"/><path class="cls-2" d="M485.72,254.8q0,3.92,2.57,14.7t4,13.21c1,1.61,2,3.23,3.13,4.86a13.71,13.71,0,0,1,2.5,5.57,44.67,44.67,0,0,1,.42,5.73q0,6.93-4.45,9.07-3.63,1.63-12.94.65-4.32,0-18.78-2.28a33.12,33.12,0,0,1-11.41-4.21q-5.16-2.79-6.82-6.73a13.26,13.26,0,0,1-1.53-6.39v-2.93a5.67,5.67,0,0,1,1.81-3.9l3.2-3.1a273.54,273.54,0,0,0,6-32q1.53-12,2.09-22,.83-14.61-3.76-19.32-1.26-.91-3.48-2.72a8.33,8.33,0,0,1-1.67-5.43q0-6.33,7.24-8.64,5.83-2,14.75-.89,15.15,2,19.47,7,6.54,5.59,11.83,24.65,5.85,20.56,11.41,27.49a2.94,2.94,0,0,0,3.06,1.2q1.67-2.16,1.67-6.75a53.62,53.62,0,0,0-.42-5.44v-.8l-.14-.33c-.27-2.57-.6-5.31-1-8.2q-2.37-9.16-7.65-14.69c-.84-.63-2-1.55-3.48-2.78a9.12,9.12,0,0,1-1.53-5.54q0-6.47,7.23-8.8,5.85-2,14.75-.89,12.24,1.53,17.39,5.28a9.71,9.71,0,0,1,4.18,8.32c0,2.14-.42,3.64-1.25,4.5a28.67,28.67,0,0,1-2.65,2.41,7.54,7.54,0,0,0-2.22,3.26c-1.12,2.11-2.23,4.26-3.34,6.47a31.43,31.43,0,0,0-2.51,12.93v2.08q.28,8.81,4.32,27.06,3.75,17.46,3.75,26.91,0,12.48-1.81,17-2.91,7.08-12.1,5.63c-6.77-1-12.9-7-18.37-17.89-1.39-2.83-5.19-12.7-11.41-29.42-3.89-10.51-7.42-16-10.57-16.38Q485.72,252.15,485.72,254.8Z"/><path class="cls-2" d="M560.16,238.27q0-16.28-3.76-20.24c-.84-.64-2-1.57-3.48-2.82a8.88,8.88,0,0,1-1.67-5.65q0-6.57,7.24-9,6-2.09,14.74-1,1.82.19,7.66,1.28c18.08,3.28,31.67,9.75,40.76,19.64q16.29,17.86,16.28,52.71c0,17.57-3.71,31.19-11.13,40.68q-12,15.31-33.53,12.14c-19-2.78-25-3.67-18.09-2.5q-13.77-2.24-19.62-5.39a39.06,39.06,0,0,1-6.54-3.88,6.2,6.2,0,0,1-2.08-5.77q.69-7.43,3.61-10.69a22.92,22.92,0,0,0,5.15-8.1Q560.29,275,560.16,238.27Zm32.69-19.43a12.59,12.59,0,0,0-1.81,1.44,6.8,6.8,0,0,0-2.29,3.33,36.9,36.9,0,0,0-1.32,5.06q0,29.13.27,35.83.28,13.53,6.54,14.35,7.25.91,10.72-8.31,2.64-6.72,2.64-16.73A72.3,72.3,0,0,0,605,232.88C602.45,224.42,598.42,219.76,592.85,218.84Z"/><path class="cls-2" d="M652.54,238.88q-.84-8.72-3.34-11.27c-.83-.62-2-1.55-3.48-2.79a9.15,9.15,0,0,1-1.67-5.78c0-4.54,2.41-7.7,7.24-9.53q6-2.34,14.75-1.55c1.11.08,2.8.32,5.08.7s4,.6,5.21.69c3.15.2,8.3.27,15.45.11s12.19-.18,15.16,0c4,.19,7.1,3.38,9.32,9.61a47.69,47.69,0,0,1,2.51,15.63,20.32,20.32,0,0,1-1.67,8.77q-2.24,4.32-6.12,4.08c-2.51-.14-4.64-1.69-6.4-4.62q-3.9-6.51-6-8.34c-3.43-3.14-8.48-4.92-15.16-5.38l-3.06-.22c-.93.38-1.58,1.68-2,3.89a9.73,9.73,0,0,0-.28,2.34,11.92,11.92,0,0,0,4.59,9.42,16.52,16.52,0,0,0,9.6,3.74c.74,0,1.65-.5,2.72-1.67s2-1.73,2.71-1.68c1.39.09,2.09,1.38,2.09,3.86a48.75,48.75,0,0,1-1.26,11.26c-1.2,5-3,7.4-5.28,7.22-1.49-.12-2.9-1.63-4.25-4.55s-3.31-4.47-5.91-4.68q-4.46-.36-4.45,8.55c0,14,6.72,21.65,20.17,22.76a10.54,10.54,0,0,0,2.65-.29,4.78,4.78,0,0,1,2.78.05,9.79,9.79,0,0,0,1.67.29q3.48.27,5.77-3.64c1.53-2.62,2.76-3.89,3.69-3.83,1.39.09,2.59,1.31,3.62,3.65a16.23,16.23,0,0,1,1.53,6.41c0,1.14.11,4.07.35,8.81s.34,8.64.34,11.71c0,13.87-2.32,22.68-6.95,26.35-1.77,1.32-7.66,1.54-17.67.55q-4.18-.42-11.41-1.18-6-.48-11.69-1.29-13.08-1.56-26.16-3.3-7.1-1.05-7.09-9a7.6,7.6,0,0,1,2.08-5.38,28.57,28.57,0,0,0,3.9-4.66l2.64-4.67q2-3.6,2.37-18.68.56-21.37,1.11-42.79C652.59,244.87,652.63,241.66,652.54,238.88Z"/><path class="cls-2" d="M732.26,230.43c-.55-2-1.11-3.91-1.67-5.87,0-4.9,2.6-8.39,7.79-10.53a32.77,32.77,0,0,1,13.08-2.12c8.72.15,14.43.85,17.12,2.25q3.61,1.76,4.87,8,2.92,13.56,4,16.7c1.12,4.06,2.27,8.13,3.48,12.2q2.92,8.9,5.57,8.91,3.75,0,5.42-15.2,1-9.61,1.95-19.42,2.08-9,8.63-11.91c2.5-1.12,7-1.83,13.35-2.21,14.47-.6,21.71,3,21.71,11.32,0,2.12-1.32,5.16-4,9.08a21.82,21.82,0,0,0-4,12.41q0,14.33,3.06,37.42,2.92,18.51,5.7,37.07.42,3.36,4.18,7.07c2.5,2.48,3.76,5,3.75,7.63,0,5.45-3.57,9.14-10.71,10.91-3.15.87-8.26,1.35-15.3,1.35s-12-.48-15.17-1.35c-6.95-1.74-10.43-5.28-10.43-10.52a6.61,6.61,0,0,1,1.32-4.18c.88-1.15,1.74-2.27,2.57-3.37s1.58-5,2.23-11.8q.82-8.92.83-13.49v-9.65c-.46-4.09-1.81-6.13-4-6.13q-1.68.17-2.92,6.11-2.37,10.13-2.65,11.16-2.08,6.09-5.29,6-3.62-.07-5.7-6.05a106.73,106.73,0,0,1-2.64-11.2q-1.4-5.94-2.93-6-3.48-.07-3.75,20.85,1.25,5.93,2.22,7.69c1.21,1.66,2.48,3.43,3.83,5.32a9.75,9.75,0,0,1,2,5.62q0,7.8-1.39,11.75c-.75,3.67-3.58,6-8.49,6.92a35,35,0,0,1-7,.52c-2.83,0-7.07-.21-12.73-.57-10.39-.65-17.3-2.48-20.73-5.3s-5.15-7.89-5.15-15.16q0-2.57,2.65-5.44c2.13-2.35,3.34-3.92,3.61-4.7q2.64-6.31,6-31.12c2-15.65,3.06-26.88,3.06-33.62Q739.64,235.83,732.26,230.43Z"/><path class="cls-2" d="M865.28,252.4q-.15-18.09-3.76-21.54c-.83-.53-2-1.33-3.48-2.41q-1.66-2-1.67-5.94c0-4.88,2.41-8.69,7.24-11.51a34.11,34.11,0,0,1,14.75-4.33c8.25-.78,14-.25,17.39,1.73q4.31,2.34,4.31,8.32a9.16,9.16,0,0,1-1.32,5.42c-.88,1.2-1.79,2.34-2.71,3.41a10.49,10.49,0,0,0-2.09,4.23q-2.51,8.26-2.51,24.5v.91q1.26,15.4,3.9,32.31,2.79,19.06,4.87,22.49c1.2,1.57,2.48,3.26,3.83,5.05a9.25,9.25,0,0,1,2,5.6c0,9.92-1.94,16.23-5.84,18.88-3,2.07-10.9,3.71-23.79,4.5-10.39.63-17.3-.46-20.73-3s-5.15-7.63-5.15-15.24c0-1.78.88-3.77,2.64-6,2.13-2.7,3.34-4.49,3.62-5.34q2-5.08,4.73-26.17Q864,269.33,865.28,252.4Z"/><path class="cls-2" d="M1017.07,303.09c-.37,7.37-4.27,13.57-11.68,18.37a49.31,49.31,0,0,1-17.68,7.18c-7,1.48-12,1.63-15,.61-5.1-1.63-7.65-6.23-7.65-13.75a56.53,56.53,0,0,1,1-9.81c4.17-6.33,6.26-15.3,6.26-26.79,0-4-2-6.55-6.12-7.84a20.2,20.2,0,0,0-10-.47l-3.89,1.63c-3.44,3.32-5.15,8.74-5.15,16.32a32.53,32.53,0,0,0,2.64,13.87,60.42,60.42,0,0,0,5.15,7,11,11,0,0,1,2.64,6.72c0,8.46-3.34,14.52-10,18-3.24,1.72-9.13,3.22-17.67,4.32-12.8,1.62-19.2-2-19.2-10.32A25.75,25.75,0,0,1,918,309.28q8.76-9.27,15.44-37.4c3.8-16.34,5.71-30.44,5.71-42.18a28.68,28.68,0,0,0-1.81-11,15.74,15.74,0,0,0-3.2-4.76c-1.21-1.25-1.81-2.24-1.81-3,0-4,5-8.32,14.89-13.21,8.44-4.12,14.61-6.47,18.5-6.85,6.59-.62,11.6.83,15,4.46q2.36,2.58,7,12.81,1.39,3.39,3.48,13.69,8.07,41.12,16.28,61a13.05,13.05,0,0,0,4.18,5.4,16.26,16.26,0,0,1,4,4.3Q1017.35,296,1017.07,303.09Zm-49.25-59.95c0-1-.84-4.08-2.51-9.28q-2.35-7.08-6.26-6.28c-1.57.32-3.25,3.3-5,8.93q-2.22,7.25-2.22,10.93c0,1.1,1.2,1.43,3.62,1a25.67,25.67,0,0,0,2.78-.82,25.71,25.71,0,0,1,2.78-.83q2.78-.56,3.48-.15Q967.83,245.56,967.82,243.14Z"/></g></g></svg>